<?xml version="1.0" encoding="utf-8"?>
<!-- Generator: Adobe Illustrator 21.0.0, SVG Export Plug-In . SVG Version: 6.00 Build 0)  -->
<svg version="1.1" id="Calque_1" xmlns="http://www.w3.org/2000/svg" xmlns:xlink="http://www.w3.org/1999/xlink" x="0px" y="0px"
	 viewBox="0 0 544.9 201.9" style="enable-background:new 0 0 544.9 201.9;" xml:space="preserve">
<style type="text/css">
	.st0{fill:#10069F;}
	.st1{fill:#EF3340;}
</style>
<g>
	<g>
		<path class="st0" d="M174.3,55.9V34.5h6.5v21.1c0,6.9,3.5,10.5,9.4,10.5c5.8,0,9.3-3.4,9.3-10.3V34.5h6.5v21
			c0,11.1-6.2,16.6-15.9,16.6C180.4,72.2,174.3,66.6,174.3,55.9z"/>
		<path class="st0" d="M215,34.5h6l19.9,25.6V34.5h6.4v37.1h-5.5l-20.4-26.4v26.4H215L215,34.5L215,34.5z"/>
		<path class="st0" d="M257.2,34.5h6.5v37.1h-6.5V34.5z"/>
		<path class="st0" d="M270.4,34.5h7.2L288.8,63l11.1-28.5h7l-15.4,37.3h-5.8L270.4,34.5z"/>
		<path class="st0" d="M313.3,34.5h27.5v5.8h-21V50h18.6v5.8h-18.6v10h21.2v5.8h-27.8L313.3,34.5L313.3,34.5z"/>
		<path class="st0" d="M348.8,34.5h16.5c4.7,0,8.3,1.4,10.7,3.7c2,2,3.1,4.8,3.1,8v0.1c0,6.1-3.7,9.7-8.8,11.2l10,14h-7.7l-9.1-12.9
			h-8.2v12.9h-6.5L348.8,34.5L348.8,34.5z M364.9,52.9c4.7,0,7.6-2.4,7.6-6.2v-0.1c0-4-2.9-6.1-7.7-6.1h-9.5v12.4H364.9z"/>
		<path class="st0" d="M384.6,66.2l3.9-4.7c3.5,3.1,7.1,4.8,11.7,4.8c4,0,6.6-1.9,6.6-4.7v-0.1c0-2.6-1.5-4.1-8.4-5.7
			c-7.9-1.9-12.3-4.2-12.3-11.1v-0.1c0-6.4,5.3-10.8,12.7-10.8c5.4,0,9.7,1.6,13.5,4.7l-3.5,4.9c-3.3-2.5-6.7-3.8-10.1-3.8
			c-3.8,0-6,2-6,4.4v0.1c0,2.9,1.7,4.1,8.8,5.8c7.8,1.9,11.9,4.7,11.9,10.9v0.1c0,6.9-5.5,11.1-13.2,11.1
			C394.4,72.1,389.1,70.2,384.6,66.2z"/>
		<path class="st0" d="M421.4,34.5h6.5v37.1h-6.5V34.5z"/>
		<path class="st0" d="M446.9,40.6h-11.8v-6h30.1v6h-11.8v31h-6.6L446.9,40.6L446.9,40.6z"/>
		<path class="st0" d="M472.1,34.5h27.5v5.8h-21V50h18.6v5.8h-18.6v10h21.2v5.8h-27.8L472.1,34.5L472.1,34.5z M489.3,23.8l5.8,2.5
			l-6.8,5.1h-5L489.3,23.8z"/>
		<path class="st0" d="M172.4,120.2l3.9-4.7c3.5,3.1,7.1,4.8,11.7,4.8c4,0,6.6-1.9,6.6-4.7v-0.1c0-2.6-1.5-4.1-8.4-5.7
			c-7.9-1.9-12.3-4.2-12.3-11.1v-0.1c0-6.4,5.3-10.8,12.7-10.8c5.4,0,9.7,1.6,13.5,4.7l-3.5,4.9c-3.3-2.5-6.7-3.8-10.1-3.8
			c-3.8,0-6,2-6,4.4v0.1c0,2.9,1.7,4.1,8.8,5.8c7.8,1.9,11.9,4.7,11.9,10.9v0.1c0,6.9-5.5,11.1-13.2,11.1
			C182.2,126.1,176.8,124.2,172.4,120.2z"/>
		<path class="st0" d="M221.1,88.3h6l16.3,37.3h-6.9l-3.8-9h-17.5l-3.8,9h-6.7L221.1,88.3z M230.4,110.9L224,96l-6.4,14.8H230.4z"/>
		<path class="st0" d="M241.4,88.5h7.2l11.2,28.5l11.1-28.5h7l-15.4,37.3h-5.8L241.4,88.5z"/>
		<path class="st0" d="M280.3,107.2v-0.1c0-10.4,8-19.2,19.4-19.2c11.4,0,19.3,8.6,19.3,19.1v0.1c0,10.4-8,19.2-19.4,19.2
			C288.2,126.2,280.3,117.6,280.3,107.2z M312.2,107.2v-0.1c0-7.2-5.2-13.2-12.6-13.2c-7.4,0-12.5,5.9-12.5,13.1v0.1
			c0,7.2,5.2,13.1,12.6,13.1C307.1,120.2,312.2,114.4,312.2,107.2z"/>
		<path class="st0" d="M327.3,88.5h6.5v37.1h-6.5V88.5z"/>
		<path class="st0" d="M343.7,88.5h27.5v5.8h-21v9.6h18.6v5.8h-18.6v10h21.2v5.8h-27.8L343.7,88.5L343.7,88.5z"/>
		<path class="st0" d="M174.9,142.5h6.9l11.3,17.5l11.3-17.5h6.9v37.1h-6.5V153l-11.7,17.5h-0.2l-11.6-17.4v26.5h-6.4L174.9,142.5
			L174.9,142.5z"/>
		<path class="st0" d="M219.2,161.2v-0.1c0-10.4,8.1-19.2,19.4-19.2c11.4,0,19.3,8.6,19.3,19.1v0.1c0,10.4-8,19.2-19.4,19.2
			S219.2,171.6,219.2,161.2z M251.1,161.2v-0.1c0-7.2-5.2-13.2-12.6-13.2S226,153.8,226,161v0.1c0,7.2,5.2,13.1,12.6,13.1
			S251.1,168.4,251.1,161.2z"/>
		<path class="st0" d="M265.9,142.5h6l19.9,25.6v-25.6h6.4v37.1h-5.5l-20.4-26.4v26.4h-6.4V142.5z"/>
		<path class="st0" d="M316.8,148.6h-11.8v-6h30.1v6h-11.8v31h-6.6L316.8,148.6L316.8,148.6z"/>
		<path class="st0" d="M357.9,142.5h16.6c4.2,0,7.6,1.2,9.7,3.3c1.6,1.6,2.5,3.7,2.5,6.1v0.1c0,4.4-2.5,6.8-5.3,8.3
			c4.3,1.5,7.4,4,7.4,9v0.1c0,6.6-5.5,10.2-13.7,10.2h-17.2L357.9,142.5L357.9,142.5z M380.2,153c0-2.9-2.3-4.7-6.5-4.7h-9.4v9.9
			h8.9c4.2,0,7-1.6,7-5L380.2,153L380.2,153z M374.7,163.7h-10.3v10.2h10.8c4.4,0,7.1-1.7,7.1-5.1v-0.1
			C382.3,165.5,379.8,163.7,374.7,163.7z"/>
		<path class="st0" d="M396.2,142.5h6.5v31.1h19.5v5.9h-26V142.5z"/>
		<path class="st0" d="M442.1,142.3h6l16.3,37.3h-6.9l-3.8-9h-17.5l-3.8,9h-6.7L442.1,142.3z M451.4,164.9l-6.4-14.8l-6.4,14.8
			H451.4z"/>
		<path class="st0" d="M470.8,142.5h6l19.9,25.6v-25.6h6.4v37.1h-5.5l-20.4-26.4v26.4h-6.4V142.5z"/>
		<path class="st0" d="M511,161.2v-0.1c0-10.5,7.9-19.2,19.1-19.2c6.8,0,11,2.4,14.5,5.8l-4.2,4.8c-3-2.8-6.1-4.6-10.4-4.6
			c-7,0-12.2,5.8-12.2,13.1v0.1c0,7.3,5.1,13.1,12.2,13.1c4.6,0,7.5-1.8,10.6-4.8l4.2,4.2c-3.9,4-8.1,6.6-15,6.6
			C519,180.2,511,171.8,511,161.2z"/>
	</g>
	<g>
		<path class="st1" d="M53.3,68.7v10.5c0,3,2.4,5.5,5.5,5.5h10.3V68.7H53.3z"/>
		<path class="st1" d="M78.9,84.6h10.6c3,0,5.5-2.4,5.5-5.5V68.7h-16V84.6z"/>
		<polygon class="st1" points="69.1,43 60.6,43 58.8,43 53.3,43 53.3,48.5 53.3,52.4 53.3,58.8 69.1,58.8 		"/>
		<polygon class="st1" points="95,58.8 95,48.5 95,48.5 95,43 89.5,43 87.7,43 78.9,43 78.9,58.8 		"/>
	</g>
	<g>
		<path class="st0" d="M144.1,26H116c-2.3,0-4.2,1.9-4.2,4.2c0,2.3,1.9,4.2,4.2,4.2h23.9V133c0,3.8-0.4,7.8-1.1,11.8l-0.1,0.6
			L113,112c-0.8-1-2.1-1.7-3.4-1.7c-1.3,0-2.6,0.6-3.4,1.7l-7.7,10.3l-21-28.2c-0.8-1.1-2.1-1.7-3.4-1.7c-1.3,0-2.6,0.6-3.4,1.7
			l-21,28.2L42,112c-0.8-1.1-2.1-1.7-3.4-1.7c-1.3,0-2.6,0.6-3.4,1.7L9.7,145.4l-0.1-0.6c-0.7-4-1.1-8-1.1-11.8V34.5h23.9
			c2.3,0,4.2-1.9,4.2-4.2c0-2.3-1.9-4.2-4.2-4.2H4.2C1.9,26,0,27.9,0,30.3V133c0,14.2,4,28.1,11.7,40c1.7,2.7,3.6,5.3,5.6,7.6
			c7.6,9,17.4,16.3,28.3,20.8c0.6,0.3,1.3,0.5,2,0.5c1.3,0,2.6-0.6,3.4-1.7l23.2-31l0.2,0.3l22.8,30.6c0.5,0.7,1.3,1.3,2.2,1.5
			l0.2,0.1c0.4,0.1,0.8,0.2,1.2,0.2l0,0c0.6,0,1.1-0.1,1.6-0.3c11.1-4.6,21-11.8,28.6-20.9c2-2.4,3.9-4.9,5.6-7.6
			c7.6-11.9,11.7-25.8,11.7-40V30.3C148.3,27.9,146.4,26,144.1,26z M125.9,173.4c-6.3,8-14.4,14.6-23.6,18.9l-0.2,0.1l-0.1-0.2
			l-24.4-32.7c-0.8-1.1-2.1-1.7-3.4-1.7c-1.3,0-2.6,0.6-3.4,1.7l-24.5,32.9l-0.2-0.1c-9.2-4.3-17.3-10.9-23.6-18.9l-0.1-0.2l0.1-0.2
			l51.8-69.3l24.7,33l27.2,36.5L125.9,173.4z"/>
		<g>
			<path class="st0" d="M108.4,4.2c0-2.2-1.7-4-3.9-4.2c-2.2-0.2-4.2,1.3-4.5,3.5l-0.8,4.3c-1.4,3.3-5.3,5.4-10.1,5.4
				c-5,0-10.8-2.4-10.8-9c0-2.3-1.9-4.2-4.2-4.2c-2.3,0-4.2,1.9-4.2,4.2c0,6.6-5.8,9-10.8,9c-4.8,0-8.6-2.1-10.1-5.4l0-0.1l-0.7-4.2
				c-0.4-2-2.1-3.5-4.2-3.5c-0.1,0-0.2,0-0.4,0c-2.2,0.2-3.9,2-3.9,4.2c0,0.3,0,0.5,0,0.8c0.1,1.1,0.8,4.3,0.9,4.9c0,0,0,0,0,0
				l3.6,21c0.4,2,2.1,3.5,4.2,3.5h51.1c2.1,0,3.8-1.5,4.2-3.5l3.6-21c0,0,0,0,0,0c0.1-0.6,0.8-4,0.9-5.2
				C108.4,4.6,108.4,4.4,108.4,4.2z M96.1,26H52.2l-1-5.7l0.5,0.2c2.3,0.8,4.8,1.2,7.5,1.2c6,0,11.2-2.1,14.8-5.9l0.2-0.2l0.2,0.2
				c3.6,3.8,8.8,5.9,14.8,5.9c2.6,0,5.2-0.4,7.5-1.2l0.5-0.2L96.1,26z"/>
		</g>
	</g>
</g>
</svg>
