<?xml version="1.0" encoding="utf-8"?>
<!-- Generator: Adobe Illustrator 28.0.0, SVG Export Plug-In . SVG Version: 6.00 Build 0)  -->
<svg version="1.1" id="Calque_1" xmlns="http://www.w3.org/2000/svg" xmlns:xlink="http://www.w3.org/1999/xlink" x="0px" y="0px"
	 viewBox="0 0 394.7 86" style="enable-background:new 0 0 394.7 86;" xml:space="preserve">
<style type="text/css">
	.st0{fill:#FFFFFF;}
	.st1{fill:#DA9F4A;}
	.st2{fill:#1D1E1C;}
</style>
<g>
	<g>
		<path class="st0" d="M72.2,25v-8h2.5v7.9c0,2.6,1.3,4,3.5,4c2.2,0,3.5-1.3,3.5-3.9v-8h2.5v7.9c0,4.2-2.4,6.3-6,6.3
			C74.5,31.2,72.2,29.1,72.2,25z"/>
		<path class="st0" d="M87.5,17h2.3l7.5,9.6V17h2.4v14h-2.1L89.9,21v9.9h-2.4V17z"/>
		<path class="st0" d="M103.4,17h2.5v14h-2.5V17z"/>
		<path class="st0" d="M108.4,17h2.7l4.2,10.7l4.2-10.7h2.7L116.4,31h-2.2L108.4,17z"/>
		<path class="st0" d="M124.5,17h10.3v2.2H127v3.6h7V25h-7v3.7h8v2.2h-10.4V17z"/>
		<path class="st0" d="M137.9,17h6.2c1.8,0,3.1,0.5,4,1.4c0.7,0.8,1.2,1.8,1.2,3v0c0,2.3-1.4,3.7-3.3,4.2l3.8,5.3h-2.9l-3.4-4.9
			h-3.1v4.9h-2.5V17z M143.9,23.9c1.8,0,2.9-0.9,2.9-2.3v0c0-1.5-1.1-2.3-2.9-2.3h-3.6v4.7H143.9z"/>
		<path class="st0" d="M151.4,28.9l1.5-1.8c1.3,1.2,2.7,1.8,4.4,1.8c1.5,0,2.5-0.7,2.5-1.8v0c0-1-0.6-1.5-3.1-2.1
			c-3-0.7-4.6-1.6-4.6-4.2v0c0-2.4,2-4,4.8-4c2,0,3.6,0.6,5.1,1.8l-1.3,1.9c-1.3-0.9-2.5-1.4-3.8-1.4c-1.4,0-2.3,0.7-2.3,1.7v0
			c0,1.1,0.6,1.6,3.3,2.2c2.9,0.7,4.5,1.8,4.5,4.1v0c0,2.6-2.1,4.2-5,4.2C155,31.1,153,30.4,151.4,28.9z"/>
		<path class="st0" d="M165.2,17h2.5v14h-2.5V17z"/>
		<path class="st0" d="M174.8,19.3h-4.4V17h11.3v2.3h-4.4v11.7h-2.5V19.3z"/>
		<path class="st0" d="M184.3,17h10.3v2.2h-7.9v3.6h7V25h-7v3.7h8v2.2h-10.4V17z M190.7,12.9l2.2,1l-2.6,1.9h-1.9L190.7,12.9z"/>
		<path class="st0" d="M71.5,49.2l1.5-1.8c1.3,1.2,2.7,1.8,4.4,1.8c1.5,0,2.5-0.7,2.5-1.8v0c0-1-0.6-1.5-3.1-2.1
			c-3-0.7-4.6-1.6-4.6-4.2v0c0-2.4,2-4,4.8-4c2,0,3.6,0.6,5.1,1.8l-1.3,1.9c-1.3-0.9-2.5-1.4-3.8-1.4c-1.4,0-2.3,0.7-2.3,1.7v0
			c0,1.1,0.6,1.6,3.3,2.2c3,0.7,4.5,1.8,4.5,4.1v0c0,2.6-2.1,4.2-5,4.2C75.2,51.5,73.2,50.7,71.5,49.2z"/>
		<path class="st0" d="M89.8,37.2h2.3l6.1,14.1h-2.6l-1.4-3.4h-6.6l-1.4,3.4h-2.5L89.8,37.2z M93.3,45.7l-2.4-5.6l-2.4,5.6H93.3z"/>
		<path class="st0" d="M97.4,37.3h2.7l4.2,10.7l4.2-10.7h2.7l-5.8,14.1h-2.2L97.4,37.3z"/>
		<path class="st0" d="M112.1,44.3L112.1,44.3c0-4,3-7.3,7.3-7.3c4.3,0,7.3,3.2,7.3,7.2v0c0,3.9-3,7.2-7.3,7.2
			C115.1,51.5,112.1,48.3,112.1,44.3z M124.1,44.3L124.1,44.3c0-2.8-2-5-4.7-5c-2.8,0-4.7,2.2-4.7,4.9v0c0,2.7,2,4.9,4.7,4.9
			C122.2,49.2,124.1,47,124.1,44.3z"/>
		<path class="st0" d="M129.8,37.3h2.5v14h-2.5V37.3z"/>
		<path class="st0" d="M136,37.3h10.3v2.2h-7.9v3.6h7v2.2h-7v3.7h8v2.2H136V37.3z"/>
		<path class="st0" d="M72.4,57.6H75l4.2,6.6l4.2-6.6h2.6v14h-2.5v-10l-4.4,6.6h-0.1l-4.4-6.5v10h-2.4V57.6z"/>
		<path class="st0" d="M89.1,64.7L89.1,64.7c0-4,3-7.3,7.3-7.3c4.3,0,7.3,3.2,7.3,7.2v0c0,3.9-3,7.2-7.3,7.2S89.1,68.6,89.1,64.7z
			 M101.1,64.7L101.1,64.7c0-2.8-2-5-4.7-5c-2.8,0-4.7,2.2-4.7,4.9v0c0,2.7,2,4.9,4.7,4.9C99.2,69.6,101.1,67.4,101.1,64.7z"/>
		<path class="st0" d="M106.7,57.6h2.3l7.5,9.6v-9.6h2.4v14h-2.1l-7.7-9.9v9.9h-2.4V57.6z"/>
		<path class="st0" d="M125.8,59.9h-4.4v-2.3h11.3v2.3h-4.4v11.7h-2.5V59.9z"/>
		<path class="st0" d="M141.3,57.6h6.3c1.6,0,2.9,0.4,3.6,1.2c0.6,0.6,0.9,1.4,0.9,2.3v0c0,1.7-1,2.6-2,3.1c1.6,0.6,2.8,1.5,2.8,3.4
			v0c0,2.5-2.1,3.8-5.2,3.8h-6.5V57.6z M149.7,61.6c0-1.1-0.9-1.8-2.5-1.8h-3.5v3.7h3.3C148.6,63.5,149.7,62.9,149.7,61.6
			L149.7,61.6z M147.6,65.6h-3.9v3.8h4.1c1.7,0,2.7-0.7,2.7-1.9v0C150.5,66.3,149.5,65.6,147.6,65.6z"/>
		<path class="st0" d="M155.7,57.6h2.5v11.7h7.3v2.2h-9.8V57.6z"/>
		<path class="st0" d="M173,57.5h2.3l6.1,14.1h-2.6l-1.4-3.4h-6.6l-1.4,3.4h-2.5L173,57.5z M176.5,66.1l-2.4-5.6l-2.4,5.6H176.5z"/>
		<path class="st0" d="M183.8,57.6h2.3l7.5,9.6v-9.6h2.4v14h-2.1l-7.7-9.9v9.9h-2.4V57.6z"/>
		<path class="st0" d="M198.9,64.7L198.9,64.7c0-4,3-7.3,7.2-7.3c2.6,0,4.1,0.9,5.5,2.2l-1.6,1.8c-1.1-1-2.3-1.7-3.9-1.7
			c-2.7,0-4.6,2.2-4.6,4.9v0c0,2.7,1.9,4.9,4.6,4.9c1.7,0,2.8-0.7,4-1.8l1.6,1.6c-1.5,1.5-3,2.5-5.7,2.5
			C201.9,71.8,198.9,68.7,198.9,64.7z"/>
	</g>
	<g>
		<path class="st1" d="M26.7,29.9v3.9c0,1.1,0.9,2.1,2.1,2.1h3.9v-6H26.7z"/>
		<path class="st1" d="M36.3,35.8h4c1.1,0,2.1-0.9,2.1-2.1v-3.9h-6V35.8z"/>
		<polygon class="st1" points="32.6,20.2 29.4,20.2 28.7,20.2 26.7,20.2 26.7,22.2 26.7,23.7 26.7,26.1 32.6,26.1 		"/>
		<polygon class="st1" points="42.3,26.1 42.3,22.2 42.3,22.2 42.3,20.2 40.3,20.2 39.6,20.2 36.3,20.2 36.3,26.1 		"/>
	</g>
	<path class="st0" d="M60.8,13.8H50.2c-0.9,0-1.6,0.7-1.6,1.6c0,0.9,0.7,1.6,1.6,1.6h9v37.1c0,1.4-0.1,2.9-0.4,4.4l0,0.2l-9.6-12.6
		c-0.3-0.4-0.8-0.6-1.3-0.6c-0.5,0-1,0.2-1.3,0.6L43.7,50l-7.9-10.6c-0.3-0.4-0.8-0.6-1.3-0.6c-0.5,0-1,0.2-1.3,0.6L25.3,50
		l-2.9-3.9c-0.3-0.4-0.8-0.6-1.3-0.6c-0.5,0-1,0.2-1.3,0.6l-9.6,12.6l0-0.2c-0.3-1.5-0.4-3-0.4-4.4V17h9c0.9,0,1.6-0.7,1.6-1.6
		c0-0.9-0.7-1.6-1.6-1.6H8.2c-0.9,0-1.6,0.7-1.6,1.6v38.7c0,5.4,1.5,10.6,4.4,15.1c0.6,1,1.4,2,2.1,2.9c2.8,3.4,6.5,6.1,10.7,7.8
		c0.2,0.1,0.5,0.2,0.8,0.2c0.5,0,1-0.2,1.3-0.6l8.7-11.7l0.1,0.1l8.6,11.5c0.2,0.3,0.5,0.5,0.8,0.6l0.1,0c0.1,0,0.3,0.1,0.5,0.1
		c0,0,0,0,0,0c0.2,0,0.4,0,0.6-0.1c4.2-1.7,7.9-4.4,10.8-7.9c0.7-0.9,1.5-1.9,2.1-2.9c2.9-4.5,4.4-9.7,4.4-15.1V15.4
		C62.4,14.5,61.7,13.8,60.8,13.8z M54,69.3c-2.4,3-5.4,5.5-8.9,7.1l-0.1,0L45,76.4l-9.2-12.3c-0.3-0.4-0.8-0.6-1.3-0.6
		c-0.5,0-1,0.2-1.3,0.6L24,76.4l-0.1,0c-3.4-1.6-6.5-4.1-8.9-7.1L15,69.2l0-0.1l19.5-26.1l9.3,12.4L54,69.3L54,69.3z"/>
	<g>
		<path class="st0" d="M47.4,5.6c0-0.8-0.6-1.5-1.5-1.6c-0.8-0.1-1.6,0.5-1.7,1.3L44,6.9c-0.5,1.3-2,2-3.8,2c-1.9,0-4.1-0.9-4.1-3.4
			c0-0.9-0.7-1.6-1.6-1.6c-0.9,0-1.6,0.7-1.6,1.6c0,2.5-2.2,3.4-4.1,3.4c-1.8,0-3.3-0.8-3.8-2l0,0l-0.3-1.6C24.6,4.6,24,4,23.2,4
			c0,0-0.1,0-0.1,0c-0.8,0.1-1.5,0.8-1.5,1.6c0,0.1,0,0.2,0,0.3c0,0.4,0.3,1.6,0.3,1.8c0,0,0,0,0,0l1.4,7.9c0.1,0.8,0.8,1.3,1.6,1.3
			h19.2c0.8,0,1.4-0.6,1.6-1.3l1.4-7.9c0,0,0,0,0,0c0-0.2,0.3-1.5,0.3-1.9C47.4,5.7,47.4,5.7,47.4,5.6z M42.8,13.8H26.2l-0.4-2.1
			l0.2,0.1c0.9,0.3,1.8,0.5,2.8,0.5c2.3,0,4.2-0.8,5.6-2.2l0.1-0.1l0.1,0.1c1.3,1.4,3.3,2.2,5.6,2.2c1,0,1.9-0.2,2.8-0.5l0.2-0.1
			L42.8,13.8z"/>
	</g>
</g>
<path class="st1" d="M237.7,65.6c-1.6,0-4.3,0-5.9,0c0,1.7,0,4.2,0,6h5.9V65.6z"/>
<path class="st1" d="M237.7,49.4c-1.6,0-4.3,0-5.9,0c0,1.7,0,4.2,0,6h5.9V49.4z"/>
<path class="st1" d="M237.7,33.2c-1.6,0-4.3,0-5.9,0c0,1.7,0,4.2,0,6h5.9V33.2z"/>
<path class="st1" d="M237.7,16.9c-1.6,0-4.3,0-5.9,0c0,1.7,0,4.2,0,6h5.9V16.9z"/>
<path class="st2" d="M339.5,63.5"/>
<g>
	<path class="st0" d="M260.8,29.2L260.8,29.2c0-6.5,4.8-11.7,11.8-11.7c4.3,0,6.8,1.4,8.9,3.5l-3.2,3.6c-1.7-1.6-3.5-2.5-5.8-2.5
		c-3.8,0-6.6,3.2-6.6,7v0.1c0,3.9,2.7,7.1,6.6,7.1c2.6,0,4.2-1,5.9-2.6l3.2,3.2c-2.3,2.5-4.9,4-9.3,4
		C265.7,40.8,260.8,35.7,260.8,29.2z"/>
	<path class="st0" d="M283,31.9L283,31.9c0-5,4-9.1,9.4-9.1c5.4,0,9.3,4,9.3,8.9v0.1c0,5-4,9-9.4,9C286.9,40.8,283,36.8,283,31.9z
		 M296.9,31.9L296.9,31.9c0-2.6-1.8-4.8-4.6-4.8c-2.8,0-4.5,2.2-4.5,4.7v0.1c0,2.5,1.8,4.8,4.6,4.8
		C295.2,36.6,296.9,34.4,296.9,31.9z"/>
	<path class="st0" d="M304.5,16.9h4.9v23.6h-4.9V16.9z"/>
	<path class="st0" d="M313.3,16.9h4.9v23.6h-4.9V16.9z"/>
	<path class="st0" d="M321,31.9L321,31.9c0-5,3.5-9.1,8.6-9.1c5.8,0,8.4,4.5,8.4,9.4c0,0.4,0,0.8-0.1,1.3h-12c0.5,2.2,2,3.4,4.2,3.4
		c1.6,0,2.8-0.5,4.2-1.8l2.8,2.5c-1.6,2-3.9,3.2-7.1,3.2C324.8,40.8,321,37.2,321,31.9z M323.6,17.3l4.2-1.8l3.6,5.7h-3.6
		L323.6,17.3z M333.2,30.4c-0.3-2.2-1.6-3.7-3.6-3.7c-2,0-3.4,1.5-3.7,3.7H333.2z"/>
	<path class="st0" d="M340.7,43.8l1.7-3.7c1.8,1,3.5,1.6,5.8,1.6c3.4,0,4.9-1.6,4.9-4.7v-0.8c-1.5,1.7-3,2.8-5.6,2.8
		c-4,0-7.7-2.9-7.7-8.1v-0.1c0-5.2,3.7-8.1,7.7-8.1c2.7,0,4.3,1.1,5.6,2.6v-2.3h4.9v13.4c0,3.1-0.7,5.4-2.2,6.8
		c-1.6,1.6-4.1,2.3-7.5,2.3C345.6,45.6,342.9,45,340.7,43.8z M353.2,30.9L353.2,30.9c0-2.4-1.8-4.1-4.2-4.1c-2.4,0-4.2,1.6-4.2,4
		v0.1c0,2.4,1.8,4,4.2,4C351.4,34.9,353.2,33.3,353.2,30.9z"/>
	<path class="st0" d="M360.6,31.9L360.6,31.9c0-5,3.5-9.1,8.6-9.1c5.8,0,8.4,4.5,8.4,9.4c0,0.4,0,0.8-0.1,1.3h-12
		c0.5,2.2,2,3.4,4.2,3.4c1.6,0,2.8-0.5,4.2-1.8l2.8,2.5c-1.6,2-3.9,3.2-7.1,3.2C364.5,40.8,360.6,37.2,360.6,31.9z M372.8,30.4
		c-0.3-2.2-1.6-3.7-3.6-3.7c-2,0-3.4,1.5-3.7,3.7H372.8z"/>
</g>
<g>
	<g>
		<path class="st0" d="M261.6,49h8.8c7.1,0,12,4.9,12,11.2v0.1c0,6.4-4.9,11.3-12,11.3h-8.8V49z M266.6,53.5v13.6h3.8
			c4.1,0,6.8-2.7,6.8-6.7v-0.1c0-4-2.7-6.8-6.8-6.8H266.6z"/>
		<path class="st0" d="M284.5,63L284.5,63c0-5,4-9.1,9.4-9.1c5.4,0,9.3,4,9.3,8.9V63c0,5-4,9-9.4,9C288.5,72,284.5,68,284.5,63z
			 M298.4,63L298.4,63c0-2.6-1.8-4.8-4.6-4.8c-2.8,0-4.5,2.2-4.5,4.7V63c0,2.5,1.8,4.8,4.6,4.8C296.7,67.7,298.4,65.6,298.4,63z"/>
		<path class="st0" d="M305,63L305,63c0-5,3.8-9.1,9.1-9.1c3.3,0,5.3,1.1,6.9,2.9l-3,3.2c-1.1-1.2-2.2-1.9-3.9-1.9
			c-2.5,0-4.2,2.2-4.2,4.7V63c0,2.6,1.7,4.8,4.4,4.8c1.6,0,2.8-0.7,4-1.8l2.9,2.9c-1.7,1.8-3.6,3.2-7.1,3.2C308.8,72,305,68,305,63z
			"/>
		<path class="st0" d="M324.1,66.7v-8.2H322v-4.2h2.1v-4.4h4.9v4.4h4.1v4.2H329v7.4c0,1.1,0.5,1.7,1.6,1.7c0.9,0,1.7-0.2,2.4-0.6
			v3.9c-1,0.6-2.2,1-3.9,1C326.1,71.9,324.1,70.7,324.1,66.7z"/>
		<path class="st0" d="M334.4,63L334.4,63c0-5,4-9.1,9.4-9.1c5.4,0,9.3,4,9.3,8.9V63c0,5-4,9-9.4,9C338.4,72,334.4,68,334.4,63z
			 M348.3,63L348.3,63c0-2.6-1.8-4.8-4.6-4.8c-2.8,0-4.5,2.2-4.5,4.7V63c0,2.5,1.8,4.8,4.6,4.8C346.6,67.7,348.3,65.6,348.3,63z"/>
		<path class="st0" d="M355.7,54.3h4.9v3.5c1-2.4,2.6-3.9,5.5-3.8v5.1h-0.3c-3.3,0-5.3,2-5.3,6.1v6.4h-4.9V54.3z"/>
		<path class="st0" d="M366.4,66.6L366.4,66.6c0-3.8,2.9-5.6,7-5.6c1.7,0,3,0.3,4.2,0.7v-0.3c0-2-1.3-3.2-3.7-3.2
			c-1.9,0-3.2,0.4-4.8,0.9l-1.2-3.7c1.9-0.8,3.8-1.4,6.7-1.4c2.7,0,4.6,0.7,5.8,1.9c1.3,1.3,1.9,3.2,1.9,5.5v10h-4.7v-1.9
			c-1.2,1.3-2.8,2.2-5.2,2.2C369,71.9,366.4,70,366.4,66.6z M377.6,65.5v-0.9c-0.8-0.4-1.9-0.6-3.1-0.6c-2.1,0-3.4,0.8-3.4,2.4v0.1
			c0,1.3,1.1,2.1,2.7,2.1C376.1,68.5,377.6,67.2,377.6,65.5z"/>
		<path class="st0" d="M385.8,48h4.9v23.6h-4.9V48z"/>
	</g>
</g>
</svg>
